inDegrees=no
num_controls=7
num_derivatives=13
num_iterations=144
num_multipliers=7
num_parameters=0
num_slacks=7
num_states=26
objective=5.580462
objective_accelerations=0.746632
objective_balance=0.036612
objective_effort=0.374945
objective_height=4.399109
objective_ligament=0.023163
solver_duration=1605.047790
status=Solve_Succeeded
success=true
DataType=double
version=3
OpenSimVersion=4.4-2022-07-23-0e9fedc
endheader
time	/jointset/ground_pelvis/pelvis_tilt/value	/jointset/ground_pelvis/pelvis_tx/value	/jointset/ground_pelvis/pelvis_ty/value	/jointset/hip_l/hip_flexion_l/value	/jointset/hip_l/hip_adduction_l/value	/jointset/hip_l/hip_rotation_l/value	/jointset/back/lumbar_extension/value	/jointset/patellofemoral_l/patellar_flexion_l/value	/jointset/knee_l/knee_flexion_l/value	/jointset/knee_l/knee_adduction_l/value	/jointset/knee_l/knee_rotation_l/value	/jointset/ankle_l/ankle_angle_l/value	/jointset/subtalar_l/subtalar_angle_l/value	/jointset/ground_pelvis/pelvis_tilt/speed	/jointset/ground_pelvis/pelvis_tx/speed	/jointset/ground_pelvis/pelvis_ty/speed	/jointset/hip_l/hip_flexion_l/speed	/jointset/hip_l/hip_adduction_l/speed	/jointset/hip_l/hip_rotation_l/speed	/jointset/back/lumbar_extension/speed	/jointset/patellofemoral_l/patellar_flexion_l/speed	/jointset/knee_l/knee_flexion_l/speed	/jointset/knee_l/knee_adduction_l/speed	/jointset/knee_l/knee_rotation_l/speed	/jointset/ankle_l/ankle_angle_l/speed	/jointset/subtalar_l/subtalar_angle_l/speed	/forceset/tau_hip_flexion_l	/forceset/tau_hip_adduction_l	/forceset/tau_hip_rotation_l	/forceset/tau_knee_flexion_l	/forceset/tau_ankle_angle_l	/forceset/tau_subtalar_angle_l	/forceset/tau_lumbar_extension	lambda_cid13_p0	lambda_cid13_p1	lambda_cid13_p2	lambda_cid13_p3	lambda_cid13_p4	lambda_cid13_p5	lambda_cid14_p0	/jointset/ground_pelvis/pelvis_tilt/accel	/jointset/ground_pelvis/pelvis_tx/accel	/jointset/ground_pelvis/pelvis_ty/accel	/jointset/hip_l/hip_flexion_l/accel	/jointset/hip_l/hip_adduction_l/accel	/jointset/hip_l/hip_rotation_l/accel	/jointset/back/lumbar_extension/accel	/jointset/patellofemoral_l/patellar_flexion_l/accel	/jointset/knee_l/knee_flexion_l/accel	/jointset/knee_l/knee_adduction_l/accel	/jointset/knee_l/knee_rotation_l/accel	/jointset/ankle_l/ankle_angle_l/accel	/jointset/subtalar_l/subtalar_angle_l/accel	gamma_cid13_p0	gamma_cid13_p1	gamma_cid13_p2	gamma_cid13_p3	gamma_cid13_p4	gamma_cid13_p5	gamma_cid14_p0
1	-0.7876732768954897	-0.2041967649365087	0.5459271165481457	2.122666621518126	-0.4764899920403279	-0.0414355834006039	-0.2617986116702031	1.166600987228122	1.166600987228065	-0.1609528990087126	-0.1745328266429352	-0.08698701154880736	-0.1714280743501767	-0.02194875864701995	0.007244012403788713	0.004439395906565992	0.003112468596276255	-0.001144329633569837	0.001582985350256587	-4.144340072564454e-05	-0.004883343664048779	-0.004883343664048992	-0.005850624494399504	-4.079285927262431e-05	0.01345314040794817	0.004716679364442186	-0.4560648406729109	-0.002273293882999285	-0.002346254122567464	-0.1973245291305505	0.1797835412973475	0.07433202903550903	0.3608343861040294	14.90776042541095	-35.34477347577051	5.815450366187716	-3.051190496390487	-654.2923734555928	-32.16643571823071	-9.487170129775198	2.427175436586389	0.5768464118699511	2.025723282931433	-7.714548890349599	0.04601881096561799	-2.170116483731045	-0.02648318015113366	-4.407524175033798	-4.40752417503383	-0.2426663938987151	-0.02259818298255718	0.3464431749943366	0.2231774706431473	5.460520182011499e-10	7.744124745199096e-09	1.730968391611804e-09	7.587551256840901e-09	-3.518142682260968e-09	6.193173494210909e-10	2.383453310922627e-09
1.01	-0.7877728771059676	-0.2040955424695818	0.5460726901637697	2.122313702384794	-0.4764979126740638	-0.0415279380861987	-0.2617988259390749	1.166331619246092	1.166331619246078	-0.1610218825362852	-0.1745328662081575	-0.08683491450421252	-0.1713684319510455	0.002029564681838006	0.01301021616050083	0.02467541567664452	-0.07369404212968693	-0.0004127354944779742	-0.02001338085480028	-4.784910469603063e-06	-0.04898519666090891	-0.04898519666090955	-0.007936344243076114	7.717650506670201e-05	0.01698412957083937	0.007246109594716946	-0.4558252760710261	-0.002378225301585065	-0.002345369852239171	-0.197563505768862	0.1802228112167274	0.07436425343608824	0.3606934945161865	15.05339322503806	-35.39853589747154	5.840319070998578	-3.342162670627491	-654.2677265065144	-32.25569354934572	-9.49937998122007	2.383287398872929	0.5779682676896815	2.022552759319466	-7.663364972834427	0.09078804413180065	-2.148318105001073	0.01823418557085466	-4.410756682266652	-4.410756682266663	-0.1900649162674702	0.03564319034336798	0.3591066661984489	0.2729700507098713	-2.444618635565581e-09	7.526970306869478e-10	1.696852507414163e-08	3.2099725147343e-09	-9.111197481565866e-09	2.735012195301968e-08	-3.775737834483141e-09
1.02	-0.7876326687595864	-0.203936365783064	0.5464206262641488	2.121192785582389	-0.4764977057006584	-0.04183504071707791	-0.261798774858766	1.165621384570047	1.165621384570061	-0.1611114312915331	-0.1745303963421132	-0.08664697159213522	-0.1712824663993137	0.02601295272418234	0.01883485632197618	0.04491189285759568	-0.1504870652202417	0.0004811917946449408	-0.04136660370418539	1.162645805171697e-05	-0.09305668246795069	-0.09305668246795189	-0.009963670028365854	0.0004610936374480381	0.02062231390420749	0.009981309884597148	-0.4555857114691088	-0.00248315672017341	-0.002344485581883434	-0.1978024824071904	0.1806620811360956	0.0743964778366594	0.3605526029283885	15.19794987437077	-35.45384345930681	5.867414496012412	-3.662740113897124	-654.2757390894263	-32.34543175521512	-9.530468089354427	2.428188379283593	0.5885336928226447	2.025814765105979	-7.711851363267922	0.07848544097179462	-2.12148781259673	-0.03053260449779903	-4.401450737070102	-4.401450737070157	-0.2309876012213536	0.03059137062578051	0.3678822090898075	0.2643314825642415	-5.372786910393098e-09	-8.43081345870919e-09	2.745482256812092e-08	-3.065236820104802e-09	-1.539518959489504e-08	5.611103468054119e-08	-1.053524294788247e-08
1.03	-0.7872525745801513	-0.2037186292410842	0.5469708466152586	2.119304176008322	-0.4764876801446238	-0.04235430328252697	-0.2617986341950013	1.164470648294064	1.164470648294083	-0.1612209979319383	-0.1745226815912698	-0.08642221461784053	-0.1711680988560622	0.05000911483445412	0.02472429605790138	0.06512400009897978	-0.2272148054620652	0.001559762754825657	-0.06243310453900401	1.614368765700893e-05	-0.1370790837848344	-0.1370790837848346	-0.01193673949580529	0.001134332294230387	0.02433743858254506	0.01293105681696363	-0.454994243762943	-0.002489150991976876	-0.002345088377409658	-0.1980012093853827	0.1809357119071113	0.07447662705439302	0.3601866081234845	15.30595649367237	-35.52268169415052	5.895657768580461	-3.952171051265861	-654.010585899943	-32.54011937788528	-9.580388056619361	2.385812451664706	0.5909238016142886	2.01767773852107	-7.650231575277142	0.1279197766807381	-2.091321367666486	0.01588949579635166	-4.400907986142504	-4.400907986142293	-0.1785350175543428	0.09357283253820765	0.3745821647627915	0.3161234083254773	-8.300317405843684e-09	-1.763669213968579e-08	3.789263782548231e-08	-9.359809732420776e-09	-2.168623208897957e-08	8.489266279708233e-08	-1.730087371401643e-08
1.04	-0.7866324223146569	-0.2034416433642177	0.5477229418457552	2.116648889787716	-0.4764657935083589	-0.04308264888608154	-0.2617984592371629	1.162880033373485	1.162880033373501	-0.1613499089466267	-0.1745066579099193	-0.08616005548325043	-0.1710230684215367	0.07402456993534336	0.03068472329933641	0.08528686873496412	-0.3038223945293953	0.002853407840585191	-0.08318321132350852	1.848528151382581e-05	-0.1810324113875181	-0.1810324113875169	-0.01383254488520814	0.002122879724359314	0.02810274596316524	0.016113888139433	-0.454402776056766	-0.00249514526378147	-0.002345691172876314	-0.198199936363585	0.1812093426781218	0.07455677627212259	0.3598206133185975	15.41304114425808	-35.59292360779787	5.92591276909917	-4.272395401412209	-653.7785119048676	-32.73672785408744	-9.648981551107621	2.432046977407001	0.6027311939246653	2.015967044026043	-7.687821128369282	0.1215002660874827	-2.058209002533998	-0.03096773164765937	-4.38763599423005	-4.387635994230017	-0.2155347856140604	0.09365312529495551	0.3779187495464273	0.310948360584788	-1.058740312660204e-08	-2.669529415481804e-08	4.556864884059762e-08	-1.576893647817516e-08	-2.776008369227796e-08	1.110352765738303e-07	-2.339858362823365e-08
1.05	-0.7857719957177968	-0.2031046650613942	0.5486763383863551	2.113228284203451	-0.4764298853295698	-0.04401678868986968	-0.2617982869220154	1.160850308371331	1.160850308371332	-0.1614974763104257	-0.1744791738721813	-0.08586008541776549	-0.1708450750347318	0.09806451885509451	0.03672589270548591	0.1053761287342115	-0.3802609364385484	0.004368345170361584	-0.1035836565824075	1.59864521924914e-05	-0.2248934790415252	-0.2248934790415237	-0.01566717000748183	0.003428051843289664	0.03189137761880281	0.01952436400623844	-0.4533770232181922	-0.002453234046502551	-0.002351001098337567	-0.1984432097120832	0.1814649712772404	0.07466016471600252	0.359169470022711	15.5317463830929	-35.67828176917752	5.961991407897244	-4.609873198369428	-653.2552334680241	-33.03343234710057	-9.736167383054251	2.390530249810063	0.6070486289918849	2.00295205358425	-7.616207493440735	0.1725103933028755	-2.021816814866457	0.01511034625241423	-4.382469694225236	-4.382469694225191	-0.1653743791708526	0.1570850911529889	0.3793529632830574	0.3620329555387321	-1.285447494815127e-08	-3.574929377414265e-08	5.315835347314275e-08	-2.21816430312245e-08	-3.382714808023929e-08	1.370954211524597e-07	-2.947542101582848e-08
1.06	-0.7846710573516246	-0.2027068273015026	0.5498301368420891	2.109044425845847	-0.4763776237921065	-0.04515310385171917	-0.261798139334188	1.158382547183992	1.158382547183972	-0.1616629795261842	-0.1744370109460414	-0.08552222551778203	-0.1706317897380969	0.1221269237968685	0.04285661471292981	0.1253672517618209	-0.4564729491978011	0.006124079575343853	-0.1236182829332523	1.353981592943991e-05	-0.2686396484250991	-0.2686396484250971	-0.01741971527522789	0.005058657400653656	0.03568071286286644	0.02317227010545455	-0.4523512703796321	-0.002411322829235472	-0.002356311023802062	-0.198686483060582	0.1817205998763561	0.07476355315986946	0.3585183267268142	15.64961991178257	-35.76483622424519	5.999793752556347	-4.978676854262149	-652.7665597088115	-33.33381403308604	-9.841763300551499	2.436538181811493	0.6206417141835912	1.996339649698478	-7.642515298389196	0.1696596811286249	-1.985045220923173	-0.03095729303624737	-4.364656340143378	-4.36465634014332	-0.1991188147085496	0.1587398129816233	0.3780594672317216	0.3584344070669238	-1.427186023539537e-08	-4.475126517034529e-08	5.66337736885531e-08	-2.888176665942424e-08	-3.943919955248308e-08	1.593455108196835e-07	-3.465707887820892e-08
1.07	-0.7833293261734263	-0.2022471958191385	0.5511832774600052	2.104099687062952	-0.4763066601109707	-0.04648791384554844	-0.2617980455027578	1.155477991299484	1.155477991299496	-0.1618456888879052	-0.1743770385452429	-0.08514656463502575	-0.1703809369388252	0.1462255825717714	0.04908813107161283	0.1452366936386689	-0.5324230448448969	0.008107185352230165	-0.1432851324573466	5.534624298953086e-06	-0.312243787583645	-0.3122437875836422	-0.01910657141910765	0.00698035279957019	0.03944315504728094	0.02703285175512031	-0.4509174029549238	-0.002329871789761049	-0.00236564933882853	-0.1989590888727658	0.1819418286815602	0.07489297039405475	0.3576032606151696	15.77359874850355	-35.86594066601963	6.042401886266626	-5.362314143099649	-651.9972286952476	-33.73254206335476	-9.965664975106238	2.397465062284581	0.6271667791679075	1.978610644876748	-7.563498438784151	0.2184207786249754	-1.948742429837756	0.0143240900870445	-4.354123538860549	-4.354123538860462	-0.1511484035327381	0.2155850654167081	0.3740911951705464	0.4050560165256945	-1.56440494303892e-08	-5.375046910787123e-08	5.989034898815837e-08	-3.559717842991922e-08	-4.502704821006105e-08	1.813929379916198e-07	-3.979112080839711e-08
1.08	-0.7817464213400847	-0.2017246971366959	0.5527343853343292	2.098396998975405	-0.4762147084215327	-0.04801763985694809	-0.2617980224787534	1.152138227856359	1.152138227856407	-0.1620448026889519	-0.1742965090580244	-0.08473352841019902	-0.1700904411285352	0.1703616548248547	0.05543005472859773	0.1649607030434226	-0.6080628101285749	0.01032168123536148	-0.1626014864488461	-6.216748016049186e-07	-0.3556811601482046	-0.3556811601482011	-0.02070060313518416	0.009170074681285948	0.04315578127666565	0.03110087230915764	-0.4494835355302143	-0.002248420750263054	-0.002374987654035229	-0.1992316946849387	0.1821630574867738	0.07502238762827006	0.3566881945035196	15.8967469476985	-35.96800164697236	6.08642140962696	-5.777183870440772	-651.2652231110002	-34.13678247845282	-10.10768319783515	2.444020877447509	0.6427231738440056	1.967253155279613	-7.580449225705649	0.2159377023776039	-1.914946114404243	-0.03058751453040294	-4.331303021346109	-4.331303021346048	-0.1805539291479122	0.212345109541423	0.3680962762258331	0.3999221879412433	-1.620615676316233e-08	-6.170201239065291e-08	6.081148767072118e-08	-4.176531570593887e-08	-4.978241260606841e-08	1.981403118486873e-07	-4.370335887182471e-08
